<mxfile host="Electron" modified="2023-12-20T21:24:48.211Z" agent="Mozilla/5.0 (Windows NT 10.0; Win64; x64) AppleWebKit/537.36 (KHTML, like Gecko) draw.io/22.1.11 Chrome/114.0.5735.289 Electron/25.9.8 Safari/537.36" etag="hKR1WWrIC05SfueBdEUu" version="22.1.11" type="device">
  <diagram name="Σελίδα-1" id="hP1Nd9hT1WSnaAeC4IM6">
    <mxGraphModel dx="864" dy="516" grid="0" gridSize="10" guides="1" tooltips="1" connect="1" arrows="1" fold="1" page="1" pageScale="1" pageWidth="827" pageHeight="1169" math="0" shadow="0">
      <root>
        <mxCell id="0" />
        <mxCell id="1" parent="0" />
        <mxCell id="AA1_4V5GRdpOy6ZbC0qR-2" value="namespace FirstExample&#xa;{&#xa;    internal class Program&#xa;    {&#xa;        static void Main(string[] args)&#xa;        {&#xa;            Console.WriteLine(&quot;Hello, World!&quot;);&#xa;        }&#xa;    }&#xa;}" style="text;whiteSpace=wrap;fontSize=20;fontFamily=Architects Daughter;" vertex="1" parent="1">
          <mxGeometry x="82" y="116" width="620" height="392" as="geometry" />
        </mxCell>
        <mxCell id="AA1_4V5GRdpOy6ZbC0qR-3" value="1" style="ellipse;whiteSpace=wrap;html=1;aspect=fixed;strokeWidth=2;fontFamily=Tahoma;spacingBottom=4;spacingRight=2;strokeColor=#d3d3d3;sketch=1;hachureGap=4;jiggle=2;curveFitting=1;fontSource=https%3A%2F%2Ffonts.googleapis.com%2Fcss%3Ffamily%3DArchitects%2BDaughter;fontSize=20;" vertex="1" parent="1">
          <mxGeometry x="346" y="129" width="20" height="20" as="geometry" />
        </mxCell>
        <mxCell id="AA1_4V5GRdpOy6ZbC0qR-4" value="2" style="ellipse;whiteSpace=wrap;html=1;aspect=fixed;strokeWidth=2;fontFamily=Tahoma;spacingBottom=4;spacingRight=2;strokeColor=#d3d3d3;sketch=1;hachureGap=4;jiggle=2;curveFitting=1;fontSource=https%3A%2F%2Ffonts.googleapis.com%2Fcss%3Ffamily%3DArchitects%2BDaughter;fontSize=20;" vertex="1" parent="1">
          <mxGeometry x="382" y="177" width="20" height="20" as="geometry" />
        </mxCell>
        <mxCell id="AA1_4V5GRdpOy6ZbC0qR-5" value="3" style="ellipse;whiteSpace=wrap;html=1;aspect=fixed;strokeWidth=2;fontFamily=Tahoma;spacingBottom=4;spacingRight=2;strokeColor=#d3d3d3;sketch=1;hachureGap=4;jiggle=2;curveFitting=1;fontSource=https%3A%2F%2Ffonts.googleapis.com%2Fcss%3Ffamily%3DArchitects%2BDaughter;fontSize=20;" vertex="1" parent="1">
          <mxGeometry x="439" y="221" width="20" height="20" as="geometry" />
        </mxCell>
        <mxCell id="AA1_4V5GRdpOy6ZbC0qR-6" value="4" style="ellipse;whiteSpace=wrap;html=1;aspect=fixed;strokeWidth=2;fontFamily=Tahoma;spacingBottom=4;spacingRight=2;strokeColor=#d3d3d3;sketch=1;hachureGap=4;jiggle=2;curveFitting=1;fontSource=https%3A%2F%2Ffonts.googleapis.com%2Fcss%3Ffamily%3DArchitects%2BDaughter;fontSize=20;" vertex="1" parent="1">
          <mxGeometry x="496" y="269" width="20" height="20" as="geometry" />
        </mxCell>
        <mxCell id="AA1_4V5GRdpOy6ZbC0qR-8" value="Namespace" style="text;html=1;strokeColor=#d6b656;fillColor=#fff2cc;align=center;verticalAlign=middle;whiteSpace=wrap;rounded=0;fontSize=20;fontFamily=Architects Daughter;" vertex="1" parent="1">
          <mxGeometry x="376" y="124" width="171" height="30" as="geometry" />
        </mxCell>
        <mxCell id="AA1_4V5GRdpOy6ZbC0qR-12" value="Class" style="text;html=1;strokeColor=#d6b656;fillColor=#fff2cc;align=center;verticalAlign=middle;whiteSpace=wrap;rounded=0;fontSize=20;fontFamily=Architects Daughter;" vertex="1" parent="1">
          <mxGeometry x="411" y="170" width="171" height="30" as="geometry" />
        </mxCell>
        <mxCell id="AA1_4V5GRdpOy6ZbC0qR-14" value="Method" style="text;html=1;strokeColor=#d6b656;fillColor=#fff2cc;align=center;verticalAlign=middle;whiteSpace=wrap;rounded=0;fontSize=20;fontFamily=Architects Daughter;" vertex="1" parent="1">
          <mxGeometry x="469" y="214" width="171" height="30" as="geometry" />
        </mxCell>
        <mxCell id="AA1_4V5GRdpOy6ZbC0qR-15" value="Output" style="text;html=1;strokeColor=#d6b656;fillColor=#fff2cc;align=center;verticalAlign=middle;whiteSpace=wrap;rounded=0;fontSize=20;fontFamily=Architects Daughter;" vertex="1" parent="1">
          <mxGeometry x="538" y="262" width="171" height="30" as="geometry" />
        </mxCell>
        <mxCell id="AA1_4V5GRdpOy6ZbC0qR-16" value="internal class Program&#xa; {&#xa;   &#xa;&#xa;&#xa; }" style="text;whiteSpace=wrap;fontSize=20;fontFamily=Architects Daughter;" vertex="1" parent="1">
          <mxGeometry x="184" y="622" width="346" height="158" as="geometry" />
        </mxCell>
        <mxCell id="AA1_4V5GRdpOy6ZbC0qR-17" value="internal class Program&#xa;    {&#xa;        static void Main(string[] args)&#xa;        {&#xa;            &#xa;        }&#xa;    }" style="text;whiteSpace=wrap;fontSize=20;fontFamily=Architects Daughter;" vertex="1" parent="1">
          <mxGeometry x="193" y="862" width="369" height="190" as="geometry" />
        </mxCell>
      </root>
    </mxGraphModel>
  </diagram>
</mxfile>
